# xmcd
#
# Track frame offsets: 
#        150
#        19160
#        39315
#        56235
#        74045
#        92660
#        110672
#        124890
#        145390
#        162857
#        182055
#        196660
#
# Disc length: 2874 seconds
#
# Revision: 0
# Processed by: cddbd v1.5.1PL0 Copyright (c) Steve Scherf et al.
# Submitted via: ExactAudioCopy v0.95a4
#
DISCID=ae0b380c
DTITLE=陈松龄 - 我爱上了英雄
DYEAR=1993
DGENRE=Pop
TTITLE0=我爱上了英雄
TTITLE1=我的路
TTITLE2=只有梦里来去
TTITLE3=小白船
TTITLE4=心愿
TTITLE5=重聚一刻心更暖
TTITLE6=欢笑吧
TTITLE7=关于真爱的故事
TTITLE8=千里万里心相连
TTITLE9=月亮
TTITLE10=不想再多讲
TTITLE11=我爱上了英雄 (国语)
EXTD=
EXTT0=
EXTT1=
EXTT2=
EXTT3=
EXTT4=
EXTT5=
EXTT6=
EXTT7=
EXTT8=
EXTT9=
EXTT10=
EXTT11=
PLAYORDER=
